<svg width="338" height="252" viewBox="0 0 338 252" fill="none" xmlns="http://www.w3.org/2000/svg">
<path d="M226.074 194.199C243.961 196.38 259.308 207.411 271.938 208.922C285.974 210.601 307.202 201.379 328.849 212.234C334.421 215.028 338.996 218.385 337.291 222.558C334.321 229.83 328.069 232.679 314.375 234.655L312.914 234.857C302.327 236.265 290.949 236.606 262.105 236.796L252.249 236.871C217.088 237.177 196.755 238.824 170.424 240.927L167.74 241.145C119.252 245.134 80.5482 244.495 51.628 240.072L50.7546 239.937C27.3892 236.277 13.3414 230.223 6.48406 223.355C2.44717 219.311 0.121822 215.541 0.00179717 211.511C-0.118228 207.482 5.83571 203.052 9.2255 201.379C18.6684 196.72 21.7495 195.03 39.9032 192.645C47.7195 191.618 59.4298 191.7 72.9658 191.243C121.524 189.603 196.54 190.598 226.074 194.199Z" fill="white"/>
<path fill-rule="evenodd" clip-rule="evenodd" d="M240.262 202.987C212.735 265.292 113.119 263.285 43.8058 220.76C30.5683 212.639 -14.935 174.36 29.851 152.007C74.6369 129.655 60.2919 95.3218 96.4358 54.3717C138.234 7.01479 216.074 -17.2741 270.818 46.4424C409.958 208.387 249.531 182.007 240.262 202.987Z" fill="#3B99FB"/>
<path fill-rule="evenodd" clip-rule="evenodd" d="M56.2442 37.7744C53.7625 33.7867 51.2757 32.2567 48.8294 33.5802C46.7585 34.7006 46.4141 37.6933 47.516 42.4809L46.8556 42.837C45.9482 43.3263 45.6093 44.4586 46.0986 45.366C46.1409 45.4445 46.1888 45.5198 46.2419 45.5914L46.5958 46.065C51.7619 52.918 55.8555 55.7248 59.0494 54.1813C61.7338 52.884 62.1873 47.3583 60.8062 37.359C60.7094 36.6587 60.0853 36.161 59.3902 36.2115L59.3029 36.2207C59.1452 36.2424 58.9927 36.2923 58.8525 36.3679L56.2442 37.7744ZM48.9193 41.4075L54.6788 38.2916L54.6652 38.2704C52.6847 35.1986 51.0067 34.2214 49.5908 34.9874L49.5258 35.0248C48.4803 35.6629 48.1905 37.6676 48.8564 41.094L48.9193 41.4075ZM59.2725 37.9589L47.615 44.2453C47.4854 44.3152 47.437 44.4769 47.5069 44.6066C47.5129 44.6178 47.5198 44.6285 47.5274 44.6388L47.8707 45.0982C52.5927 51.3617 56.1442 53.8082 58.3532 52.7407C60.0315 51.9296 60.4719 47.0037 59.3043 38.1918L59.2725 37.9589ZM56.8907 48.0381C57.1649 47.7509 57.3333 47.3618 57.3333 46.9333C57.3333 46.0497 56.617 45.3334 55.7333 45.3334C54.8497 45.3334 54.1333 46.0497 54.1333 46.9333C54.1333 47.817 54.8497 48.5333 55.7333 48.5333C55.8029 48.5333 55.8714 48.5289 55.9387 48.5203L56.8482 50.1899L56.8811 50.2429C57.0351 50.461 57.3315 50.534 57.5717 50.4032C57.8304 50.2623 57.9258 49.9383 57.7849 49.6797L56.8907 48.0381Z" fill="#FFB61D"/>
<path fill-rule="evenodd" clip-rule="evenodd" d="M226.074 194.199C243.961 196.38 259.308 207.411 271.938 208.922C285.974 210.601 307.202 201.379 328.849 212.234C334.421 215.028 338.996 218.385 337.291 222.558C334.321 229.83 328.069 232.679 314.375 234.655L312.914 234.857C302.327 236.265 290.949 236.606 262.105 236.796L252.249 236.871C217.088 237.177 196.755 238.824 170.424 240.927L167.74 241.145C119.252 245.134 80.5482 244.495 51.628 240.072L50.7546 239.937C27.3892 236.277 13.3414 230.223 6.48407 223.355C2.44717 219.311 0.121826 215.541 0.00180054 211.511C-0.118225 207.482 5.83572 203.052 9.22549 201.379C18.6684 196.72 21.7495 195.03 39.9032 192.645C47.7195 191.618 59.4298 191.7 72.9658 191.243C121.524 189.603 196.54 190.598 226.074 194.199ZM39.5023 196.02L38.3127 196.179C21.3954 198.472 10.581 202.646 5.45803 206.807L5.1383 207.075C1.20462 210.465 0.83688 214.275 6.49124 219.909C12.6738 226.069 28.4423 233.018 51.179 236.56C79.6435 240.995 117.913 242.283 165.972 238.426L171.01 238.021C198.756 235.839 220.044 234.678 259.442 234.401L270.318 234.32C293.773 234.108 303.743 233.688 313.367 232.35L314.283 232.219C356.782 223.906 326.116 208.99 308.522 208.922C293.455 208.864 275.358 213.102 270.318 211.516C254.433 206.516 246.277 198.861 226.074 196.411L220.199 195.707L215.184 195.471C132.992 191.652 74.4151 191.457 39.5023 196.02Z" fill="#00160A"/>
<path d="M92.7342 2.8682C92.4423 2.8588 92.1501 2.85912 91.8583 2.86916C84.6659 3.11648 79.0201 9.08975 79.1505 16.2628L79.1562 16.4805L79.2445 19.1683C79.4971 27.2415 79.636 35.2828 79.6613 43.2922L79.7047 67.9359C79.7144 76.8056 79.709 84.8109 79.683 92.6501L79.6473 100.964C79.5076 127.432 79.1305 146.008 78.4308 154.093L78.2956 155.605C77.4511 165.487 77.2761 179.681 77.777 198.153C77.7828 198.367 77.7936 198.58 77.8093 198.793C78.3628 206.282 84.823 211.924 92.2957 211.493L92.5225 211.478L95.0061 211.298C118.22 209.641 141.434 208.813 164.649 208.813C187.371 208.813 210.268 209.606 233.339 211.193C234.006 211.239 234.675 211.243 235.343 211.205C244.09 210.711 250.801 203.288 250.449 194.564L250.436 194.299L250.261 191.153C248.713 162.809 247.911 134.465 247.856 106.122L247.853 102.972C247.853 82.3137 248.82 53.9812 250.754 17.9623C250.776 17.5588 250.78 17.1546 250.768 16.7507C250.525 8.93198 244.052 2.77393 236.26 2.88977L236.023 2.89521L224.228 3.25282C197.431 4.0432 177.918 4.4562 165.678 4.49173L163.58 4.49407L161.422 4.48848C148.927 4.43482 129.584 4.00631 103.381 3.20305L92.7342 2.8682Z" fill="white"/>
<path fill-rule="evenodd" clip-rule="evenodd" d="M235.109 2.13339C234.164 2.65109 232.919 3.01524 231.374 3.22536C235.352 3.57871 238.479 3.49627 240.757 2.97826L240.264 2.91731C238.66 2.71481 236.942 2.45351 235.109 2.13339" fill="#E7EAEE"/>
<path fill-rule="evenodd" clip-rule="evenodd" d="M85.4954 192.863L85.6061 192.867C86.2936 192.915 86.7784 193.452 86.7152 194.045C86.6428 194.723 85.9178 195.381 85.1264 195.436C84.4972 195.479 84.0602 194.995 84.13 194.243C84.2032 193.455 84.8207 192.866 85.4954 192.863Z" fill="#E7EAEE"/>
<path fill-rule="evenodd" clip-rule="evenodd" d="M98.0855 203.164L98.1962 203.168C98.8837 203.216 99.3685 203.753 99.3053 204.346C99.2329 205.024 98.5079 205.682 97.7164 205.737C97.0873 205.78 96.6503 205.296 96.7201 204.544C96.7933 203.756 97.4108 203.167 98.0855 203.164Z" fill="#E7EAEE"/>
<path fill-rule="evenodd" clip-rule="evenodd" d="M164.788 202.487C137.475 208.515 188.759 207.45 208.765 206.13C219.653 205.411 228.347 210.85 233.339 211.193C234.006 211.239 234.675 211.243 235.343 211.205C244.09 210.711 250.801 203.288 250.449 194.564L250.436 194.299L250.261 191.153C248.713 162.809 247.911 134.465 247.856 106.122L247.853 102.972C247.853 82.3137 248.82 53.9812 250.754 17.9623C250.776 17.5588 250.78 17.1546 250.768 16.7507C250.525 8.93197 235.542 186.872 164.788 202.487Z" fill="#E7EAEE"/>
<path d="M245.797 195.201L245.893 195.204C246.391 195.244 246.798 195.763 246.74 196.395C246.675 197.096 246.07 197.726 245.467 197.774C245.044 197.807 244.686 197.352 244.749 196.569C244.814 195.768 245.315 195.213 245.797 195.201Z" fill="white"/>
<path fill-rule="evenodd" clip-rule="evenodd" d="M245.625 199.77C243.847 199.911 242.598 198.321 242.753 196.407C242.903 194.548 244.319 193.071 246.02 193.206C247.693 193.338 248.893 194.865 248.734 196.581C248.581 198.229 247.224 199.644 245.625 199.77ZM245.893 195.205L245.797 195.201C245.315 195.213 244.814 195.768 244.749 196.569C244.686 197.352 245.044 197.807 245.467 197.774C246.07 197.726 246.675 197.096 246.74 196.396C246.798 195.763 246.391 195.244 245.893 195.205Z" fill="white"/>
<path d="M228.879 14.4118C235.201 14.4118 240.325 19.5362 240.325 25.8574C240.325 26.0939 240.318 26.3305 240.303 26.5666L240.135 29.3705C239.828 34.6923 239.521 41.0107 239.215 48.3259L239.168 49.4971C238.42 69.1752 238.397 115.729 239.097 189.16C239.157 195.48 234.082 200.653 227.761 200.714C227.607 200.715 227.453 200.714 227.299 200.709L101.73 196.835C95.9156 196.655 91.1607 192.143 90.6769 186.347L90.5704 185.038C88.9166 164.193 88.8181 137.577 90.275 105.189L90.4887 100.544C91.2327 83.501 91.2911 58.6787 90.6638 26.0775C90.5435 19.8233 95.4629 14.6445 101.69 14.4194L101.997 14.4124L228.879 14.4118Z" fill="white"/>
<path fill-rule="evenodd" clip-rule="evenodd" d="M144.455 149.388C150.002 149.621 155.699 148.637 160.64 146.223C166.827 143.2 171.483 138.128 174.06 130.855C177.454 121.275 176.208 110.917 171.328 101.8C166.985 93.6856 160.156 87.5098 153.862 85.9827C153.862 85.9827 171.328 110.552 168.826 123.984C165 144.521 144.455 149.388 144.455 149.388Z" fill="#E7EAEE"/>
<path fill-rule="evenodd" clip-rule="evenodd" d="M148.489 120.533C151.189 121.653 152.013 123.734 150.962 126.776L150.901 126.946C144.065 145.718 136.002 145.889 142.901 126.946C143.737 124.651 143.53 122.891 142.28 121.665C144.489 121.216 146.559 120.839 148.489 120.533" fill="#E7EAEE"/>
<path fill-rule="evenodd" clip-rule="evenodd" d="M105.669 98.5905C107.438 93.3348 110.021 89.3839 114.849 86.2601L115.462 85.8713C116.503 85.2175 117.787 84.4772 118.832 84.9829C120.159 85.6254 122.08 87.9671 120.911 88.8865C120.118 89.5098 116.855 90.1727 114.396 92.3275C111.492 94.8712 109.402 98.9703 109.402 99.974C109.402 103.249 104.625 101.694 105.669 98.5905Z" fill="#E7EAEE"/>
<path fill-rule="evenodd" clip-rule="evenodd" d="M100.199 23.6811C94.1266 40.3545 94.168 43.6627 93.8036 40.7889C92.6251 31.4946 91.7363 25.387 93.1365 21.677C94.9092 16.98 99.353 16.056 100.498 16.6012C102.918 17.7538 100.199 23.6811 100.199 23.6811Z" fill="#E7EAEE"/>
<path fill-rule="evenodd" clip-rule="evenodd" d="M200.105 109.369L198.085 109.307C195.688 109.246 193.96 109.261 192.511 109.374C191.347 109.465 190.479 109.624 189.987 109.779L189.889 109.812L189.88 109.858C189.825 110.129 189.786 110.493 189.769 110.933L189.764 111.101C189.732 112.422 189.891 114.185 190.208 116.154C190.468 117.769 190.823 119.446 191.194 120.86L191.286 121.208C191.43 121.735 191.568 122.194 191.69 122.551L191.734 122.679L191.787 122.699C192.531 122.963 194.011 122.994 196.864 122.784L198.802 122.633C200.108 122.537 201.059 122.495 201.998 122.507L211.106 122.698C212.38 122.722 213.531 122.74 214.659 122.755L216.705 122.778C221.814 123.076 227.429 122.853 228.128 121.581C230.258 117.702 231.263 109.713 230.258 109.66C228.451 109.564 226.263 109.45 225.224 109.464L222.824 109.508L220.648 109.525C219.654 109.531 218.618 109.534 217.505 109.535L205.023 109.506C204.212 109.5 203.417 109.481 201.985 109.433L200.105 109.369Z" fill="#E7EAEE"/>
<path fill-rule="evenodd" clip-rule="evenodd" d="M104.396 0.371364L92.8263 0.00829749C92.4709 -0.00314241 92.1153 -0.00275291 91.76 0.00946535C82.9156 0.313599 75.9923 7.72998 76.2964 16.5744L76.3845 19.2577C76.4882 22.5714 76.6459 25.8797 76.8034 29.1826C77.0708 34.791 77.3375 40.3837 77.3375 45.9608L77.3746 66.1884C77.4102 94.397 77.3248 140.854 76.0719 154.31L75.9777 155.366C75.1633 164.9 74.4316 178.314 74.8494 195.608L74.9167 198.231C74.9237 198.489 74.9367 198.747 74.9558 199.004C75.6313 208.145 83.589 215.007 92.7298 214.332L95.2098 214.152L95.6206 214.122C95.7033 214.26 95.7872 214.399 95.87 214.536L95.8704 214.536C96.272 215.199 96.6473 215.819 96.7346 216.123C96.9545 216.89 96.9777 217.758 96.8507 219.724L96.7219 221.566L96.687 222.164C96.4995 225.837 96.9236 228.022 98.7151 229.667C101.019 231.782 103.46 231.558 108.461 231.098H108.461L108.686 231.077L109.974 230.953C111.462 230.809 113.135 230.925 114.275 231.004H114.275L114.276 231.004C114.604 231.027 114.888 231.047 115.11 231.056L115.531 231.077C118.401 231.192 118.857 230.247 119.108 227.912C119.246 226.626 119.066 225.613 118.31 223.001L117.744 221.076L117.557 220.406C116.673 217.143 116.754 215.514 117.905 214.726C118.184 214.535 119.35 214.188 120.694 213.788L120.695 213.788L120.695 213.788C122.078 213.377 123.651 212.909 124.641 212.497C137.977 211.948 151.313 211.674 164.649 211.674C178.661 211.674 192.74 211.977 206.886 212.582C206.793 212.735 206.776 212.956 206.875 213.264C206.987 213.612 207.413 213.852 207.957 214.16C209.399 214.975 211.672 216.261 211.143 221.252L211.145 221.457C211.225 225.391 213.609 227.699 217.446 228.483C220.011 229.006 222.929 228.848 226.107 228.297C227.68 228.025 228.694 227.04 229.178 225.541C229.445 224.713 229.54 223.969 229.603 222.488C229.603 222.488 228.903 214.794 232.795 214.024C232.911 214.032 233.026 214.04 233.142 214.048C233.593 214.079 234.044 214.094 234.495 214.092C234.556 214.107 234.617 214.122 234.68 214.139C234.866 214.189 235.044 214.16 235.204 214.077C235.305 214.073 235.405 214.068 235.505 214.062C245.918 213.473 253.882 204.554 253.293 194.141L253.118 190.997C251.515 161.655 250.714 132.314 250.714 102.972C250.714 82.9913 251.623 55.7781 253.44 21.3325L253.611 18.1157C253.637 17.6315 253.643 17.1464 253.628 16.6618C253.333 7.18456 245.412 -0.259404 235.934 0.0352007L229.928 0.219666C200.162 1.12212 178.745 1.59235 165.675 1.63035L163.582 1.63269C151.38 1.62326 131.651 1.20281 104.396 0.371364ZM228.889 213.764C222.275 213.337 215.676 212.975 209.091 212.679C212.244 214.209 213.368 217.067 213.43 221.019L213.432 221.252C213.432 223.809 215.421 225.478 218.097 226.025C218.377 226.082 218.664 226.144 218.958 226.208C220.807 226.609 222.919 227.067 225.263 226.683L225.618 226.623C227.239 226.025 227.239 220.202 227.239 220.202C227.257 219.729 227.273 219.42 227.301 219.044L227.336 218.622C227.538 216.502 227.982 214.919 228.889 213.764ZM99.485 215.334C99.3295 214.792 99.1077 214.313 98.8211 213.901C104.435 213.521 110.05 213.19 115.664 212.907C114.787 213.884 114.705 215.205 114.672 216.782C114.644 218.141 114.919 219.586 115.497 221.622L115.531 221.744L116.06 223.543C116.707 225.766 116.902 226.696 116.847 227.474L116.835 227.606C116.758 228.329 115.829 229.145 114.261 229.053L113.98 229.039C113.308 228.937 106.683 229.053 106.683 229.053C103.624 229.363 102.151 228.937 100.65 227.559C99.6429 226.634 99.3726 224.991 99.5712 221.846L99.695 220.081C99.8504 217.773 99.8375 216.693 99.5469 215.561L99.485 215.334ZM91.8583 2.86916C92.1502 2.85913 92.4423 2.85881 92.7342 2.86821L103.381 3.20305C129.584 4.00632 148.927 4.43483 161.422 4.48848L163.58 4.49408L165.678 4.49174C177.918 4.45621 197.431 4.04321 224.228 3.25283L236.023 2.89521L236.26 2.88978C244.052 2.77394 250.525 8.93198 250.768 16.7507C250.78 17.1546 250.776 17.5588 250.754 17.9623C248.82 53.9812 247.853 82.3137 247.853 102.972L247.856 106.122C247.911 134.465 248.713 162.809 250.261 191.153L250.436 194.299L250.449 194.564C250.801 203.288 244.09 210.711 235.343 211.205C234.675 211.243 234.006 211.239 233.339 211.193C210.268 209.606 187.371 208.813 164.649 208.813C141.434 208.813 118.22 209.641 95.0061 211.298L92.5225 211.478L92.2958 211.493C84.823 211.924 78.3628 206.282 77.8094 198.793C77.7936 198.58 77.7828 198.367 77.7771 198.153C77.2762 179.681 77.4511 165.487 78.2957 155.605L78.4308 154.093C79.1305 146.008 79.5076 127.432 79.6474 100.964L79.683 92.6501C79.709 84.8109 79.7144 76.8056 79.7048 67.9359L79.6613 43.2922C79.636 35.2828 79.4971 27.2415 79.2445 19.1683L79.1562 16.4805L79.1505 16.2628C79.0202 9.08976 84.6659 3.11649 91.8583 2.86916ZM240.325 25.8574C240.325 19.5362 235.201 14.4118 228.88 14.4118L101.997 14.4124L101.69 14.4194C95.4629 14.6445 90.5435 19.8233 90.6639 26.0775C91.2911 58.6787 91.2327 83.501 90.4887 100.544L90.2751 105.189C88.8182 137.577 88.9166 164.193 90.5704 185.038L90.6769 186.347C91.1607 192.143 95.9156 196.655 101.73 196.835L227.299 200.709C227.453 200.714 227.607 200.715 227.761 200.714C234.082 200.653 239.158 195.48 239.097 189.16C238.397 115.729 238.421 69.1752 239.168 49.4971L239.215 48.3259C239.521 41.0107 239.828 34.6923 240.135 29.3705L240.303 26.5666C240.318 26.3305 240.325 26.0939 240.325 25.8574ZM102.107 17.2732H228.88C233.62 17.2732 237.464 21.1165 237.464 25.8574C237.464 26.0348 237.458 26.2122 237.447 26.3893C237.147 31.2158 236.849 36.9777 236.551 43.6761L236.356 48.2063C235.6 66.2842 235.527 109.575 236.134 178.149L236.236 189.187C236.281 193.928 232.475 197.807 227.734 197.853C227.666 197.853 227.598 197.853 227.53 197.852C227.483 197.851 227.435 197.85 227.388 197.849L101.818 193.975L101.629 193.967C97.3547 193.742 93.886 190.393 93.5284 186.109C91.7664 164.994 91.6485 137.717 93.1801 104.293L93.3239 101.2C94.0462 85.1178 94.1488 62.0547 93.6334 31.9934L93.5247 26.0225C93.4335 21.2825 97.2021 17.366 101.942 17.2748C101.997 17.2738 102.052 17.2732 102.107 17.2732ZM97.7216 8.49771C97.9023 10.443 96.4927 12.0041 94.5934 11.8734C92.8564 11.7539 91.3285 10.3669 91.1504 8.69656L91.1398 8.57446C91.0294 6.91254 92.3026 5.49976 94.0108 5.31855L94.1398 5.30729C95.9614 5.18193 97.5473 6.62168 97.7216 8.49771ZM94.3619 7.3028L94.2511 7.30698C93.5636 7.35463 93.0788 7.89153 93.142 8.48412C93.2144 9.16255 93.9394 9.82069 94.7309 9.87515C95.36 9.91845 95.797 9.43446 95.7272 8.68297C95.654 7.89506 95.0365 7.30565 94.3619 7.3028ZM84.2352 23.6698C82.2551 23.8455 80.9208 21.9405 81.0855 19.6559C81.2468 17.4166 82.7846 15.6169 84.6888 15.7858L84.8117 15.7993C86.5606 16.0268 87.7688 17.7472 87.6697 19.6755L87.6606 19.8104C87.4976 21.7816 86.0194 23.5115 84.2352 23.6698ZM84.5418 17.7832L84.4446 17.7784C83.8372 17.7859 83.1693 18.6066 83.0833 19.7998C82.9974 20.9918 83.5097 21.7234 84.0582 21.6747C84.8024 21.6087 85.5771 20.7021 85.6645 19.6453C85.7473 18.6447 85.1841 17.8406 84.5418 17.7832ZM232.501 8.49771C232.32 10.443 233.73 12.0041 235.629 11.8734C237.366 11.7539 238.894 10.3669 239.072 8.69656L239.083 8.57446C239.193 6.91254 237.92 5.49976 236.212 5.31855L236.083 5.30729C234.261 5.18193 232.675 6.62168 232.501 8.49771ZM235.861 7.3028L235.971 7.30698C236.659 7.35463 237.144 7.89153 237.08 8.48412C237.008 9.16255 236.283 9.82069 235.492 9.87515C234.862 9.91845 234.425 9.43446 234.495 8.68297C234.568 7.89506 235.186 7.30565 235.861 7.3028ZM243.166 20.3959C242.103 18.8163 242.75 16.815 244.525 15.9989C246.237 15.2118 248.277 15.8654 249.079 17.5056L249.134 17.6229C249.831 19.1929 249.244 21.0019 247.75 21.7373L247.639 21.7892C246.103 22.47 244.138 21.8404 243.166 20.3959ZM247.292 18.4091L247.24 18.311C246.9 17.7282 246.081 17.4881 245.362 17.8187C244.676 18.134 244.476 18.7544 244.828 19.2776C245.271 19.9359 246.203 20.2346 246.827 19.9581C247.372 19.7165 247.594 19.0282 247.292 18.4091ZM82.8208 191.824C81.4319 193.198 81.5083 195.3 83.0473 196.421C84.4547 197.446 86.5167 197.366 87.7268 196.201L87.8134 196.114C88.9662 194.912 88.899 193.011 87.7069 191.774L87.6154 191.683C86.3005 190.416 84.1602 190.499 82.8208 191.824ZM86.1626 193.069L86.2447 193.143C86.7407 193.621 86.767 194.344 86.3377 194.758C85.8461 195.231 84.8677 195.269 84.2264 194.802C83.7166 194.431 83.6929 193.779 84.2295 193.248C84.792 192.692 85.6439 192.637 86.1626 193.069ZM95.6374 206.722C94.0984 205.601 94.022 203.499 95.4109 202.125C96.7503 200.8 98.8906 200.717 100.205 201.984L100.297 202.075C101.489 203.312 101.556 205.213 100.403 206.415L100.317 206.502C99.1067 207.667 97.0448 207.747 95.6374 206.722ZM98.8348 203.444L98.7526 203.37C98.234 202.938 97.3821 202.993 96.8195 203.549C96.283 204.08 96.3067 204.732 96.8165 205.103C97.4578 205.57 98.4362 205.532 98.9277 205.059C99.3571 204.645 99.3308 203.922 98.8348 203.444ZM236.541 202.79C234.946 204.399 234.903 206.764 236.602 207.981C238.158 209.095 240.487 208.875 241.88 207.504C243.325 206.082 243.366 203.795 241.945 202.403C240.507 200.996 238.095 201.223 236.541 202.79ZM240.481 203.777L240.562 203.852C241.151 204.429 241.133 205.429 240.475 206.076C239.767 206.774 238.521 206.891 237.768 206.352C237.159 205.916 237.176 204.995 237.963 204.201C238.762 203.395 239.874 203.265 240.481 203.777ZM245.625 199.77C243.847 199.911 242.598 198.321 242.753 196.407C242.903 194.548 244.319 193.071 246.02 193.206C247.693 193.338 248.893 194.865 248.734 196.581C248.581 198.229 247.224 199.644 245.625 199.77ZM245.893 195.204L245.797 195.201C245.315 195.213 244.814 195.768 244.749 196.569C244.686 197.352 245.044 197.807 245.467 197.774C246.07 197.726 246.675 197.096 246.74 196.395C246.798 195.763 246.391 195.244 245.893 195.204Z" fill="#00160A"/>
<path fill-rule="evenodd" clip-rule="evenodd" d="M95.4108 202.125C94.022 203.499 94.0984 205.601 95.6374 206.722C97.0448 207.747 99.1067 207.667 100.317 206.502L100.403 206.415C101.556 205.213 101.489 203.312 100.297 202.075L100.205 201.984C98.8906 200.717 96.7502 200.8 95.4108 202.125ZM98.7526 203.37L98.8348 203.444C99.3308 203.922 99.3571 204.645 98.9277 205.059C98.4362 205.532 97.4578 205.57 96.8165 205.103C96.3067 204.732 96.283 204.08 96.8195 203.549C97.3821 202.993 98.234 202.938 98.7526 203.37Z" fill="#00160A"/>
<path d="M240.481 203.777L240.562 203.852C241.151 204.429 241.133 205.429 240.475 206.076C239.767 206.774 238.521 206.891 237.768 206.352C237.159 205.916 237.176 204.995 237.963 204.201C238.762 203.395 239.874 203.265 240.481 203.777Z" fill="white"/>
<path fill-rule="evenodd" clip-rule="evenodd" d="M114.177 80.9563C113.516 81.1856 112.921 81.4968 112.184 81.9503L111.619 82.3048L111.339 82.4835C107.071 85.2381 104.222 88.6638 102.195 93.3027L102.086 93.5539L102.005 93.5295C101.467 93.3717 100.98 93.2944 100.458 93.3377C99.3468 93.4301 98.3108 94.096 97.9407 95.3374C97.3627 97.2761 97.6014 99.4932 98.3517 101.763L98.4926 102.179C99.2246 104.283 100.035 105.711 101.382 106.127C103.173 106.682 109.361 104.229 111.518 102.003C113.057 100.415 112.441 98.4737 110.976 97.353L110.842 97.2536L110.7 97.1557L110.54 97.0516L110.647 96.8595C110.722 96.7277 110.8 96.5936 110.882 96.4582C111.757 95.0073 112.851 93.6355 113.959 92.6645C114.386 92.2907 114.88 91.9479 115.442 91.6281C116.313 91.1333 119.785 89.7703 120.369 89.3106C122.247 87.834 122.03 85.6955 120.842 83.8418C120.104 82.6889 118.943 81.6085 117.821 81.0651C116.642 80.4942 115.408 80.5286 114.177 80.9563ZM116.698 83.3828C118.025 84.0254 119.946 86.3671 118.777 87.2864C117.985 87.9098 114.722 88.5727 112.262 90.7275C109.359 93.2712 107.269 97.3703 107.269 98.374L107.6 98.4983C109.411 99.1952 110.1 99.7659 109.669 100.211C107.749 102.192 102.53 103.787 102.143 103.667C101.763 103.55 99.5112 99.0832 100.409 96.0731C100.529 95.6707 101.571 95.9765 103.536 96.9905C105.305 91.7348 107.888 87.7839 112.715 84.6601L113.328 84.2713C114.37 83.6174 115.654 82.8771 116.698 83.3828Z" fill="#00160A"/>
<path fill-rule="evenodd" clip-rule="evenodd" d="M118.084 140.218C107.483 128.633 106.87 108.87 118.322 96.1432C125.437 88.2364 142.16 83.1437 153.862 85.9827C160.156 87.5099 166.985 93.6856 171.328 101.8C176.208 110.917 177.454 121.275 174.06 130.855C171.483 138.128 166.827 143.2 160.64 146.223C155.699 148.637 150.002 149.621 144.455 149.388C134.444 148.966 121.995 144.492 118.084 140.218ZM168.805 103.15C164.816 95.6982 158.601 90.077 153.187 88.7635L152.865 88.6879C142.191 86.2668 126.793 91.0072 120.449 98.0572C110.005 109.664 110.567 127.764 120.195 138.286C123.518 141.917 135.257 146.137 144.575 146.529C149.676 146.743 154.906 145.84 159.383 143.653C164.91 140.952 169.041 136.452 171.363 129.899C174.472 121.126 173.324 111.593 168.805 103.15ZM163.293 130.566C169.625 119.45 161.041 95.4476 149.052 93.4445C137.783 91.5617 133.511 94.2953 128.651 98.5099L127.711 99.3342C118.199 107.744 118.199 125.811 127.492 134.193C129.827 136.299 140.101 141.703 147.986 140.05C153.213 138.954 160.489 135.489 163.293 130.566ZM136.833 96.58C137.429 96.366 138.059 96.1897 138.729 96.0524C138.639 96.2607 138.562 96.4817 138.498 96.7154C138.143 98.0221 138.18 99.1402 138.563 101.861L138.825 103.665C138.847 103.824 138.867 103.969 138.887 104.119L138.944 104.577C139.352 108.022 138.982 109.819 137.442 110.81C136.032 111.717 134.646 112.06 131.479 112.428L130.293 112.563C128.833 112.731 128.065 112.848 127.143 113.056L126.725 113.14C125.446 113.409 124.385 113.743 123.561 114.163C124.104 109.242 126.119 104.561 129.606 101.478C132.895 98.5703 134.554 97.3972 136.833 96.58ZM148.581 96.2668C148.118 96.1894 147.667 96.1201 147.229 96.0588C147.321 96.2914 147.398 96.5388 147.463 96.8002C147.73 97.8916 147.777 98.8604 147.712 101.068L147.68 102.02C147.647 102.937 147.631 103.483 147.626 104.006L147.626 104.635C147.653 107.427 148.09 109.284 149.165 110.541L149.284 110.675L149.332 110.695C149.398 110.722 149.482 110.752 149.582 110.785L149.688 110.82C149.934 110.898 150.243 110.986 150.638 111.089L151.298 111.258L154.118 111.949C154.672 112.086 155.165 112.212 155.637 112.336L156.413 112.546C158.744 113.188 160.531 113.814 161.832 114.512C159.89 105.82 154.545 97.2632 148.581 96.2668ZM162.144 120.904C162.305 120.802 162.457 120.698 162.601 120.592C162.671 123.834 162.127 126.832 160.807 129.15C158.911 132.478 153.645 135.647 148.503 136.989C148.633 136.661 148.738 136.304 148.82 135.923C149.07 134.749 149.11 133.405 149.011 131.501L148.949 130.477L148.856 129.129C148.68 126.438 148.723 125.312 148.957 125.042C150.013 123.828 151.475 123.364 155.197 122.83L156.06 122.707C159.171 122.252 160.63 121.869 162.144 120.904ZM140.274 135.595C140.313 136.078 140.473 136.571 140.733 137.036C139.413 136.757 138.041 136.356 136.641 135.844C133.512 134.699 130.477 133.032 129.408 132.068C126.014 129.007 124.061 124.386 123.547 119.521C124.427 119.926 125.589 120.268 127.033 120.61L127.255 120.662C127.838 120.797 128.434 120.923 129.137 121.062L131.147 121.452C135.645 122.376 137.968 123.448 139.029 124.879L139.135 125.028C139.838 126.053 140.033 127.214 140.089 130.227L140.121 132.372C140.146 133.658 140.186 134.51 140.274 135.595ZM143.657 96.1738L143.786 96.1853C145.001 96.3303 145.258 97.4566 145.114 101.705L145.066 103.178C145.054 103.622 145.049 103.98 145.05 104.371C145.051 107.035 145.37 109.105 146.227 110.762C146.067 110.677 145.884 110.629 145.69 110.629L145.496 110.631L145.447 110.632L145.425 110.623C145.097 110.502 144.737 110.54 144.447 110.711L144.418 110.729L144.317 110.745C141.821 111.161 139.34 112.652 138.01 114.627C136.584 116.745 136.654 119.058 138.282 121.038C136.733 120.221 134.678 119.565 131.966 118.992L131.091 118.817C130.576 118.717 129.933 118.593 129.934 118.594L129.416 118.492C128.917 118.392 128.474 118.298 128.049 118.202L127.837 118.154C126.546 117.854 125.526 117.546 124.813 117.225L124.7 117.172C124.48 117.068 124.306 116.968 124.182 116.878L124.166 116.865L124.197 116.833C124.285 116.745 124.419 116.646 124.601 116.54C125.227 116.179 126.257 115.849 127.67 115.576L128.027 115.499C128.656 115.37 129.272 115.277 130.234 115.162L131.796 114.984C135.347 114.571 136.991 114.163 138.835 112.976C141.525 111.245 142.038 108.539 141.471 104.025L141.409 103.548C141.377 103.315 141.342 103.071 141.296 102.761L141.119 101.541C140.8 99.2728 140.755 98.2996 140.964 97.4665L140.983 97.3911C141.239 96.4521 141.889 96.0636 143.657 96.1738ZM140.997 123.213C141.031 123.257 141.065 123.301 141.097 123.345C142.314 124.985 142.593 126.435 142.664 130.135L142.692 132.09C142.713 133.313 142.745 134.119 142.814 135.052L142.84 135.388C142.894 136.049 144.023 137.101 145.27 136.863C146.242 136.677 146.617 135.086 146.434 131.544L146.409 131.1L146.267 129.021C146.043 125.618 146.114 124.487 146.891 123.501C145.028 124.202 142.862 124.168 140.997 123.213ZM149.895 121.351C151.049 120.915 152.519 120.619 154.561 120.32L155.668 120.162C158.254 119.784 159.504 119.475 160.563 118.853L160.76 118.733C161.959 117.969 162.074 117.817 161.541 117.386L161.368 117.253C160.426 116.543 158.605 115.834 155.984 115.099L155.431 114.947C154.833 114.785 154.219 114.627 153.495 114.447L150.483 113.709C149.914 113.566 149.459 113.446 149.089 113.336C151.416 115.798 151.801 118.568 150.202 120.934L150.111 121.065C150.042 121.162 149.969 121.258 149.895 121.351ZM144.776 112.99L144.938 112.967L145.054 113.036C148.797 115.312 149.63 117.792 148.246 119.738C146.869 121.673 143.845 122.342 141.675 120.967C139.159 119.373 138.741 117.639 139.909 115.906C140.895 114.442 142.866 113.283 144.776 112.99Z" fill="#00160A"/>
<path d="M183.556 108.57C183.572 107.918 183.633 107.454 183.704 107.161C183.771 107.134 183.85 107.106 183.944 107.077C184.276 106.972 184.72 106.875 185.286 106.795C186.423 106.634 187.85 106.569 189.474 106.566C191.087 106.563 192.808 106.619 194.527 106.678C194.63 106.682 194.732 106.686 194.835 106.689C196.429 106.745 198.026 106.8 199.442 106.802C201.078 106.803 202.744 106.809 204.424 106.815C208.539 106.829 212.737 106.843 216.793 106.801C216.981 106.8 217.247 106.794 217.575 106.787C218.874 106.76 221.153 106.712 223.491 106.788C224.952 106.835 226.353 106.928 227.477 107.091C228.04 107.172 228.479 107.263 228.795 107.355C228.885 107.382 228.954 107.405 229.004 107.423C229.033 107.476 229.073 107.555 229.119 107.669C229.264 108.031 229.407 108.567 229.51 109.279C229.717 110.7 229.723 112.51 229.512 114.318C229.298 116.141 228.885 117.773 228.366 118.895C228.031 119.619 227.782 119.876 227.695 119.953C220.643 120.696 208.809 120.437 199.277 120.229C198.208 120.205 197.167 120.182 196.166 120.162C194.897 120.136 193.588 120.221 192.378 120.315C192.074 120.338 191.779 120.362 191.491 120.385C190.585 120.459 189.745 120.527 188.928 120.561C187.856 120.607 186.996 120.584 186.321 120.471C185.975 120.413 185.73 120.34 185.557 120.269C185.425 119.905 185.263 119.383 185.084 118.727C184.708 117.344 184.302 115.519 184.002 113.655C183.699 111.772 183.522 109.962 183.556 108.57ZM185.706 120.642C185.704 120.638 185.701 120.633 185.698 120.625C185.731 120.682 185.732 120.696 185.706 120.642ZM183.769 106.948C183.776 106.933 183.779 106.926 183.779 106.927C183.78 106.927 183.777 106.935 183.769 106.948Z" stroke="#421EB7" stroke-width="5.36509"/>
<path fill-rule="evenodd" clip-rule="evenodd" d="M199.413 104.396C201.063 104.398 202.737 104.404 204.421 104.41C207.885 104.421 211.392 104.433 214.827 104.412L216.733 104.396C216.897 104.395 217.139 104.389 217.445 104.383C220.312 104.323 228.771 104.144 230.631 105.556C233.674 107.866 232.463 122.407 228.112 122.88C220.891 123.665 208.756 123.398 199.204 123.188H199.204H199.204H199.204C198.125 123.165 197.08 123.142 196.079 123.121C194.688 123.092 193.191 123.214 191.713 123.333H191.713H191.713H191.713C188.398 123.602 185.178 123.863 183.465 122.407C182.582 121.656 179.179 107.365 181.829 105.402C183.855 103.902 189.663 104.104 194.881 104.285C196.177 104.33 197.436 104.374 198.592 104.39L198.594 104.388L198.596 104.39C198.874 104.394 199.147 104.396 199.413 104.396ZM195.923 107.183C196.205 107.193 196.462 107.201 196.699 107.208C196.891 108.393 196.914 110.475 196.775 113.543L196.673 115.76C196.583 117.832 196.55 119.242 196.609 120.271L195.936 120.257C194.998 120.245 194.046 120.287 192.741 120.383L190.803 120.534C187.95 120.744 186.47 120.713 185.725 120.448L185.672 120.429L185.629 120.301C185.507 119.944 185.369 119.485 185.225 118.958L185.132 118.61C184.762 117.196 184.407 115.519 184.147 113.904C183.83 111.935 183.67 110.171 183.703 108.851L183.708 108.683C183.725 108.243 183.764 107.879 183.818 107.607L183.828 107.561L183.925 107.529C184.417 107.374 185.286 107.215 186.45 107.124C187.899 107.01 189.627 106.996 192.023 107.057L194.044 107.119L195.923 107.183ZM205.044 120.448L199.513 120.332C199.483 120.007 199.461 119.609 199.454 119.147L199.452 119.048C199.443 118.323 199.458 117.631 199.508 116.415L199.669 112.839C199.767 110.381 199.77 108.598 199.607 107.257L211.444 107.285C212.078 107.284 212.687 107.283 213.277 107.281C213.096 110.841 213.384 117.068 213.754 120.545C212.756 120.544 211.719 120.538 210.643 120.528L208.597 120.505C207.469 120.49 206.318 120.471 205.044 120.448ZM216.661 120.536C221.058 120.499 224.588 120.357 227.325 120.085L227.581 120.058L227.616 120.023C227.761 119.857 227.932 119.591 228.106 119.235L228.172 119.097C228.686 117.986 229.092 116.367 229.302 114.574C229.51 112.8 229.508 111.002 229.302 109.582C229.206 108.927 229.072 108.389 228.921 108.013L228.878 107.912L228.846 107.845L228.732 107.81C228.426 107.719 228.005 107.632 227.491 107.555C226.477 107.404 225.171 107.303 223.644 107.25C222.223 107.2 220.779 107.193 219.162 107.214L216.763 107.257L216.081 107.263C216.058 107.65 216.042 108.11 216.036 108.626L216.034 108.793C216.022 110.188 216.072 111.945 216.171 113.891L216.192 114.282C216.274 115.809 216.383 117.385 216.499 118.772L216.569 119.58C216.6 119.925 216.631 120.246 216.661 120.536ZM204.06 112.09L204.321 112.465C204.619 112.884 204.9 113.256 205.168 113.584C204.809 114.368 204.62 115.249 204.56 116.382C204.539 116.794 204.856 117.146 205.268 117.167C205.68 117.189 206.032 116.872 206.053 116.46C206.087 115.807 206.167 115.268 206.309 114.79C207.137 115.514 207.861 115.783 208.622 115.797L208.769 115.797C209.182 115.797 209.517 115.462 209.517 115.05C209.517 114.663 209.223 114.344 208.846 114.306L208.769 114.302L208.644 114.302C208.156 114.291 207.665 114.086 206.995 113.41C207.213 113.105 207.476 112.803 207.79 112.48L208.592 111.687C208.885 111.397 208.887 110.923 208.596 110.63C208.306 110.337 207.833 110.335 207.539 110.626L206.868 111.287C206.542 111.613 206.256 111.926 206.006 112.24L205.734 111.872C205.594 111.678 205.446 111.469 205.292 111.244C205.059 110.904 204.593 110.818 204.253 111.051C203.913 111.285 203.826 111.75 204.06 112.09ZM224.469 111.379L224.476 110.923C224.479 110.51 224.147 110.173 223.735 110.169C223.322 110.166 222.984 110.498 222.981 110.91C222.977 111.364 222.966 111.771 222.946 112.135C222.564 112.014 222.151 111.914 221.698 111.826L220.772 111.654C220.366 111.577 219.975 111.843 219.898 112.249C219.821 112.654 220.088 113.045 220.493 113.122L221.601 113.332C222.042 113.423 222.429 113.527 222.78 113.658C222.603 114.592 222.311 115.037 221.912 115.32L221.808 115.39L221.747 115.436C221.456 115.678 221.39 116.106 221.607 116.427C221.838 116.769 222.302 116.86 222.644 116.629L222.766 116.547C223.389 116.109 223.84 115.482 224.121 114.419C224.506 114.736 224.873 115.137 225.267 115.66C225.515 115.989 225.984 116.055 226.313 115.807C226.643 115.559 226.709 115.09 226.461 114.76C225.778 113.854 225.129 113.229 224.392 112.78C224.431 112.359 224.456 111.893 224.469 111.379Z" fill="#00160A"/>
<path fill-rule="evenodd" clip-rule="evenodd" d="M191.861 111.315L191.744 111.756C191.607 112.252 191.47 112.698 191.33 113.097C191.937 113.711 192.415 114.474 192.859 115.519C193.02 115.899 192.842 116.338 192.462 116.499C192.082 116.66 191.644 116.483 191.483 116.103C191.227 115.501 190.968 115.022 190.671 114.622C190.141 115.585 189.552 116.085 188.842 116.358L188.703 116.409C188.316 116.55 187.887 116.35 187.746 115.962C187.613 115.599 187.781 115.199 188.122 115.034L188.192 115.004L188.31 114.961C188.765 114.784 189.156 114.423 189.554 113.559C189.245 113.347 188.895 113.153 188.489 112.957L187.465 112.486C187.09 112.313 186.926 111.869 187.099 111.495C187.272 111.12 187.716 110.956 188.09 111.129L188.947 111.52C189.365 111.715 189.741 111.912 190.084 112.122C190.19 111.773 190.3 111.381 190.414 110.942C190.517 110.542 190.924 110.302 191.324 110.405C191.724 110.508 191.964 110.916 191.861 111.315Z" fill="#64FCD9"/>
</svg>
